<svg xmlns="http://www.w3.org/2000/svg" fill="none" viewBox="0 0 18 18" id="Tiktok-Logo--Streamline-Flex-Remix" height="18" width="18">
  <desc>
    Tiktok Logo Streamline Icon: https://streamlinehq.com
  </desc>
  <g id="tiktok-logo">
    <path id="Union" fill="#ffffff" fill-rule="evenodd" d="M5.010377142857143 2.1958071428571433C6.330278571428572 2.0494928571428574 7.657045714285714 1.9285714285714288 9 1.9285714285714288s2.6697214285714286 0.12092142857142857 3.989571428571429 0.2672357142857143c1.4783142857142857 0.16386428571428574 2.6718428571428574 1.3593600000000001 2.8287 2.8347557142857145C15.95777142857143 6.3421328571428575 16.071428571428573 7.662844285714287 16.071428571428573 9s-0.11365714285714287 2.657867142857143 -0.25315714285714286 3.9693857142857145c-0.15685714285714286 1.4754857142857143 -1.3503857142857143 2.6709428571428573 -2.8287 2.8348714285714287C11.669721428571428 15.95057142857143 10.342954285714287 16.071428571428573 9 16.071428571428573c-1.3429542857142858 0 -2.6697214285714286 -0.12085714285714287 -3.9896228571428574 -0.2671714285714286 -1.478237142857143 -0.16392857142857145 -2.6717914285714284 -1.3593857142857142 -2.8287 -2.8348714285714287C2.04219 11.657867142857144 1.9285714285714288 10.337155714285716 1.9285714285714288 9s0.11361857142857144 -2.657867142857143 0.2531057142857143 -3.9694371428571436c0.15690857142857143 -1.4753957142857144 1.3504628571428572 -2.6708914285714287 2.8287 -2.8347557142857145ZM9 0.32142857142857145c-1.433957142857143 0 -2.8316828571428574 0.12902528571428573 -4.166691428571428 0.2770174285714286C2.60856 0.8450678571428573 0.8206418571428572 2.631227142857143 0.5835471428571429 4.860604285714286 0.4423011428571429 6.188721428571428 0.32142857142857145 7.576585714285715 0.32142857142857145 9c0 1.4234014285714285 0.12087257142857144 2.8112785714285717 0.2621185714285714 4.139357142857143 0.2370947142857143 2.2294285714285715 2.0250128571428574 4.015542857142858 4.2497614285714285 4.262142857142857C6.168317142857143 17.549485714285716 7.5660428571428575 17.67857142857143 9 17.67857142857143s2.8316828571428574 -0.1290857142857143 4.166742857142857 -0.2770714285714286c2.224671428571429 -0.2466 4.012585714285715 -2.032714285714286 4.249671428571428 -4.262142857142857C17.557714285714287 11.811278571428574 17.67857142857143 10.42340142857143 17.67857142857143 9c0 -1.4234142857142857 -0.12085714285714287 -2.8112785714285717 -0.26215714285714287 -4.1393957142857145 -0.23708571428571432 -2.229377142857143 -2.025 -4.015536428571429 -4.249671428571428 -4.2621582857142855C11.831682857142859 0.4504538571428572 10.433957142857142 0.32142857142857145 9 0.32142857142857145Zm1.7725242857142858 3.878717142857143c-0.11106 -0.4772571428571429 -0.5623842857142858 -0.79533 -1.0491942857142857 -0.73944 -0.48679714285714293 0.05590285714285714 -0.8542800000000002 0.4679871428571429 -0.8542800000000002 0.9579985714285716v6.654818571428573c0 0.852467142857143 -0.6910714285714286 1.5435385714285716 -1.5435514285714287 1.5435385714285716s-1.5435514285714287 -0.6910714285714286 -1.5435514285714287 -1.5435385714285716c0 -0.85248 0.6910714285714286 -1.5435514285714287 1.5435514285714287 -1.5435514285714287 0.5325557142857144 0 0.9642857142857144 -0.43173 0.9642857142857144 -0.9642857142857144s-0.43173 -0.9642857142857144 -0.9642857142857144 -0.9642857142857144c-1.9176042857142859 0 -3.4721228571428577 1.5545185714285716 -3.4721228571428577 3.4721228571428577 0 1.9175914285714286 1.5545185714285716 3.4721485714285714 3.4721228571428577 3.4721485714285714 1.9175914285714286 0 3.4721228571428577 -1.554557142857143 3.4721228571428577 -3.4721485714285714V7.539942857142857c0.6697928571428572 0.43517571428571433 1.4752028571428573 0.6675814285714285 2.38455 0.6675814285714285 0.5325428571428572 0 0.9642857142857144 -0.4317171428571429 0.9642857142857144 -0.9642857142857144 0 -0.5325557142857144 -0.43174285714285715 -0.9642857142857144 -0.9642857142857144 -0.9642857142857144 -0.7059342857142857 0 -1.2118628571428571 -0.21630857142857143 -1.5784714285714287 -0.5432914285714286 -0.37785857142857143 -0.3370242857142857 -0.6716957142857143 -0.8501657142857144 -0.8311757142857144 -1.5355157142857145Z" clip-rule="evenodd" stroke-width="1.2857"></path>
  </g>
</svg>