<svg role="img" viewBox="0 0 30 30" xmlns="http://www.w3.org/2000/svg" id="Xiaohongshu--Streamline-Simple-Icons" height="30" width="30">
  <desc>
    Xiaohongshu Streamline Icon: https://streamlinehq.com
  </desc>
  <title>Xiaohongshu</title>
  <path d="M28.00625 12.348749999999999c0.0025 0.02 0.0125 0.025 0.08750000000000001 0.02375h0.90625a0.9962500000000001 0.9962500000000001 0 0 0 0.9750000000000001 -1.2149999999999999 0.9925 0.9925 0 0 0 -1.105 -0.7725 0.99375 0.99375 0 0 0 -0.865 0.9925c0 0.12625 -0.0025 0.8325 0.00125 0.9712500000000001zm-14.38625 6.01c-0.25375000000000003 0.00125 -1.69125 0.005 -2.10625 0.00375a3.16 3.16 0 0 1 -0.9575 -0.1575 0.03125 0.03125 0 0 0 -0.0375 0.0175L9.625 20.158749999999998a0.03125 0.03125 0 0 0 0.0125 0.04c0.13875 0.075 0.42000000000000004 0.155 0.61875 0.155 0.8250000000000001 0.0125 1.6500000000000001 0.0025 2.4762500000000003 0 0.0125 0 0.025 -0.0075 0.028749999999999998 -0.01875l0.8899999999999999 -1.93125a0.03125 0.03125 0 0 0 -0.03 -0.045zM0.59625 12.3875c-0.08875 0 -0.095 0.0025 -0.095 0.0125a1.0425 1.0425 0 0 0 -0.0125 0.1c-0.03375 0.49625 -0.0475 0.61875 -0.29250000000000004 3.825 -0.015 0.3 -0.0425 0.48625 -0.16875 0.75875 -0.0325 0.07125000000000001 -0.04125 0.052500000000000005 0.00375 0.14 0.057499999999999996 0.11499999999999999 0.8512500000000001 1.9037499999999998 0.98375 2.175 0.01 0.01875 0.013749999999999998 0.025 0.02125 0.025 0.01 0 0.04125 -0.0325 0.05875 -0.05499999999999999 0.18375 -0.23375 0.335 -0.48875 0.46375 -0.7575 0.3825 -0.79375 0.55 -1.65625 0.6074999999999999 -2.1325 0.0175 -0.1375 0.026250000000000002 -0.275 0.0375 -0.41250000000000003l0.255 -3.27 0.027499999999999997 -0.36624999999999996c0.00375 -0.036250000000000004 0 -0.04125 -0.0375 -0.0425zm9.00375 4.69625a1.78375 1.78375 0 0 1 -0.16875 -0.75875c-0.005 -0.10500000000000001 -0.03875 -0.48750000000000004 -0.29374999999999996 -3.825a0.55375 0.55375 0 0 0 -0.0125 -0.10250000000000001c-0.005 -0.013749999999999998 -0.065 -0.01 -0.095 -0.01h-1.85c-0.0375 0.00125 -0.0425 0.00625 -0.0375 0.0425l0.026250000000000002 0.36624999999999996c0.095 1.2275 0.19125 2.455 0.29125 3.6825 0.0625 0.5 0.23249999999999998 1.35625 0.60875 2.1325 0.12875 0.26875 0.27875 0.5237499999999999 0.4625 0.7575 0.01875 0.0225 0.04625 0.06375 0.06 0.06125 0.025 -0.00375 0.9275 -2.0524999999999998 1.0050000000000001 -2.20625 0.045 -0.08750000000000001 0.0375 -0.06875 0.00375 -0.14zm4.82625 -1.14125h-1.09a0.1575 0.1575 0 0 1 -0.14500000000000002 -0.22249999999999998l1.4725 -3.28125a0.03125 0.03125 0 0 0 -0.028749999999999998 -0.043750000000000004l-1.6475 -0.00375a0.185 0.185 0 0 1 -0.16875 -0.2625l1.095 -2.4425a0.03125 0.03125 0 0 0 -0.028749999999999998 -0.043750000000000004h-1.9500000000000002c-0.0125 0 -0.025 0.0075 -0.03 0.01875l-1.1575 2.585c-0.10625000000000001 0.21125000000000002 -0.3925 0.7925 -0.49875 1.1724999999999999a0.6675 0.6675 0 0 0 -0.025 0.23875000000000002 0.5750000000000001 0.5750000000000001 0 0 0 0.28750000000000003 0.47250000000000003 1.22625 1.22625 0 0 0 0.5750000000000001 0.14875h0.7374999999999999c0.051250000000000004 0 -0.8599999999999999 1.8525 -1.0425 2.465a0.6625000000000001 0.6625000000000001 0 0 0 -0.028749999999999998 0.21499999999999997 0.58125 0.58125 0 0 0 0.28750000000000003 0.49750000000000005c0.1875 0.11499999999999999 0.42750000000000005 0.15 0.59375 0.15l2.0749999999999997 -0.00125c0.0125 0 0.025 -0.0075 0.028749999999999998 -0.01875l0.71875 -1.6a0.03125 0.03125 0 0 0 -0.03 -0.043750000000000004zm-8.6625 -6.171250000000001H3.875a0.04 0.04 0 0 0 -0.0425 0.04125c0 1.31 -0.0125 3.49375 -0.0125 8.536249999999999 0 0.36 -0.33625000000000005 0.3275 -0.35000000000000003 0.3275h-0.925c-0.05 0.00125 -0.05499999999999999 0.005 -0.05 0.05875 0.00125 0.04625 0.58125 1.33 0.6937500000000001 1.5787499999999999 0.0125 0.025 0.0375 0.04125 0.06375 0.04125 0.19625 0.00375 0.95875 0.01125 1.1724999999999999 -0.0175 0.19125 -0.025 0.375 -0.075 0.5475 -0.165 0.375 -0.195 0.6125 -0.5237499999999999 0.7437499999999999 -0.95625 0.065 -0.21499999999999997 0.09375 -0.44125 0.09375 -0.66625 0.0025 -2.9125 0 -5.825 -0.00875 -8.73875a0.04 0.04 0 0 0 -0.04 -0.04zm14.73 8.62c0 -0.0175 -0.0125 -0.026250000000000002 -0.03 -0.027499999999999997h-1.83125c-0.06 -0.00125 -0.06125 -0.0025 -0.0625 -0.06125v-5.825c0 -0.09 -0.00625 -0.08750000000000001 0.08750000000000001 -0.08750000000000001h1.0787499999999999c0.1 0 0.09375 0.005 0.09375 -0.0925V10.49125c0 -0.10250000000000001 0.0075 -0.095 -0.1 -0.095h-4.375c-0.08 0 -0.09375 -0.0075 -0.09375 0.09125v1.8062500000000001c0 0.10375000000000001 -0.0075 0.09625 0.1 0.09625h1.0675c0.09375 0 0.08750000000000001 -0.005 0.08750000000000001 0.08750000000000001v5.779999999999999c0 0.11875 0.01 0.10500000000000001 -0.10625000000000001 0.10500000000000001 -0.4625 0 -1.3875000000000002 -0.0025 -1.6300000000000001 0 -0.06 0.00125 -0.075 0.0375 -0.075 0.0375l-0.87125 1.89875s-0.0175 0.03125 -0.01 0.045c0.0075 0.0125 0.01625 0.01 0.07250000000000001 0.01 2.185 0.00375 4.36875 0.0025 6.553750000000001 0.0025 0.0375 -0.00125 0.0425 -0.0075 0.043750000000000004 -0.04125v-1.9237499999999998zm5.2212499999999995 -4.2875000000000005c0 0.01625 -0.00875 0.028749999999999998 -0.025 0.03 -0.4325 0.0075 -0.865 0.005 -1.29625 0.005 -0.0175 -0.0025 -0.027499999999999997 -0.0125 -0.027499999999999997 -0.03 -0.00625 -0.5425 -0.00875 -1.08625 -0.0125 -1.62875 0 -0.09 -0.0075 -0.08875 0.08750000000000001 -0.08750000000000001l0.91625 -0.00375c0.051250000000000004 0 0.10125 0.0025 0.15 0.01875 0.11624999999999999 0.03125 0.2 0.13375 0.20625000000000002 0.255 0.0075 0.53875 0.0025 1.4412500000000001 0.00125 1.4412500000000001zm3.3375 0.305a2.44125 2.44125 0 0 0 -1.10375 -0.2775h-0.22499999999999998c-0.05 -0.00125 -0.05 -0.00375 -0.052500000000000005 -0.05V12.762500000000001c0 -0.165 -0.00875 -0.32875 -0.03125 -0.49250000000000005a2.27875 2.27875 0 0 0 -0.19125 -0.6625000000000001 1.9162499999999998 1.9162499999999998 0 0 0 -0.8462500000000001 -0.8875 2.7087499999999998 2.7087499999999998 0 0 0 -1.25 -0.3225c-0.19125 -0.00375 -0.70875 0 -0.8999999999999999 0 -0.08750000000000001 0 -0.085 0.005 -0.085 -0.08125V9.7c0 -0.03875 -0.0125 -0.051250000000000004 -0.057499999999999996 -0.04875H22.4125s-0.02 0 -0.028749999999999998 0.00875c-0.0075 0.0075 -0.01 0.015 -0.01 0.028749999999999998v0.6825000000000001c-0.01 0.045 -0.07125000000000001 0.01875 -0.10250000000000001 0.027499999999999997h-1.1875c-0.027499999999999997 0.0025 -0.035 0.01 -0.0375 0.04v1.85125c0 0.11249999999999999 -0.005 0.10250000000000001 0.10250000000000001 0.10250000000000001h1.14125c0.10250000000000001 0 0.09 0.16 0.09 0.16v1.4349999999999998s0.00375 0.14625000000000002 -0.075 0.14625000000000002h-1.8525c-0.085 0 -0.075 0.10250000000000001 -0.075 0.10250000000000001v1.8062500000000001s-0.0125 0.085 0.08 0.085h1.82125c0.10250000000000001 0 0.095 -0.0075 0.095 0.09875v4.03125c0 0.10999999999999999 -0.00875 0.10125 0.10250000000000001 0.10125h1.7874999999999999c0.11249999999999999 0 0.10250000000000001 0.00875 0.10250000000000001 -0.1v-4.0875c0 -0.036250000000000004 0.0075 -0.043750000000000004 0.04125 -0.043750000000000004l2.90375 -0.00375c0.1225 0 0.23875000000000002 0.025 0.35000000000000003 0.07625a0.5750000000000001 0.5750000000000001 0 0 1 0.3425 0.5087499999999999c0.01 0.49375 0.00375 0.9875 0.00375 1.4812500000000002 0 0.32375 -0.13375 0.45875 -0.41250000000000003 0.45875h-1.5225c-0.028749999999999998 0.0025 -0.036250000000000004 0.01 -0.035 0.04125 0.22999999999999998 0.54625 0.4675 1.08875 0.7124999999999999 1.62875a0.056249999999999994 0.056249999999999994 0 0 0 0.05 0.0325c0.21250000000000002 0.00625 0.42500000000000004 0.0025 0.6375 0.00375 0.1875 -0.0025 0.64625 0.005 0.8325 -0.0125a2.5374999999999996 2.5374999999999996 0 0 0 0.51 -0.09375c0.7374999999999999 -0.22499999999999998 1.21875 -0.8724999999999999 1.22 -1.6412499999999999v-2.4762500000000003c0 -0.16 -0.0125 -0.3175 -0.0425 -0.475 0 0.0975 -0.036250000000000004 -0.80125 -0.905 -1.2475z" fill="#ffffff" stroke-width="1.25"></path>
</svg>