<svg role="img" viewBox="0 0 36 36" xmlns="http://www.w3.org/2000/svg" id="Xiaohongshu--Streamline-Simple-Icons" height="36" width="36">
  <desc>
    Xiaohongshu Streamline Icon: https://streamlinehq.com
  </desc>
  <title>Xiaohongshu</title>
  <path d="M33.6075 14.8185c0.003 0.024 0.015 0.03 0.10500000000000001 0.028499999999999998h1.0875a1.1955 1.1955 0 0 0 1.17 -1.458 1.191 1.191 0 0 0 -1.326 -0.927 1.1925000000000001 1.1925000000000001 0 0 0 -1.0379999999999998 1.191c0 0.15150000000000002 -0.003 0.9990000000000001 0.0015 1.1655zm-17.2635 7.212c-0.3045 0.0015 -2.0295 0.006 -2.5275 0.0045000000000000005a3.792 3.792 0 0 1 -1.149 -0.189 0.037500000000000006 0.037500000000000006 0 0 0 -0.045 0.021L11.55 24.1905a0.037500000000000006 0.037500000000000006 0 0 0 0.015 0.048c0.1665 0.09 0.504 0.186 0.7424999999999999 0.186 0.99 0.015 1.98 0.003 2.9715000000000003 0 0.015 0 0.03 -0.009000000000000001 0.0345 -0.0225l1.068 -2.3175a0.037500000000000006 0.037500000000000006 0 0 0 -0.036000000000000004 -0.05399999999999999zM0.7155 14.865c-0.10649999999999998 0 -0.11399999999999999 0.003 -0.11399999999999999 0.015a1.251 1.251 0 0 0 -0.015 0.12c-0.0405 0.5955 -0.056999999999999995 0.7424999999999999 -0.35100000000000003 4.59 -0.018000000000000002 0.36 -0.051000000000000004 0.5835 -0.2025 0.9105 -0.039 0.0855 -0.0495 0.063 0.0045000000000000005 0.168 0.069 0.138 1.0215 2.2845 1.1805 2.61 0.012 0.0225 0.0165 0.03 0.025500000000000002 0.03 0.012 0 0.0495 -0.039 0.07050000000000001 -0.066 0.22049999999999997 -0.28049999999999997 0.402 -0.5865 0.5565 -0.909 0.45899999999999996 -0.9525 0.66 -1.9874999999999998 0.729 -2.559 0.021 -0.165 0.0315 -0.33 0.045 -0.495l0.306 -3.9240000000000004 0.033 -0.4395c0.0045000000000000005 -0.043500000000000004 0 -0.0495 -0.045 -0.051000000000000004zm10.8045 5.6355a2.1405000000000003 2.1405000000000003 0 0 1 -0.2025 -0.9105c-0.006 -0.126 -0.0465 -0.585 -0.3525 -4.59a0.6645 0.6645 0 0 0 -0.015 -0.123c-0.006 -0.0165 -0.078 -0.012 -0.11399999999999999 -0.012h-2.2199999999999998c-0.045 0.0015 -0.051000000000000004 0.0075 -0.045 0.051000000000000004l0.0315 0.4395c0.11399999999999999 1.4729999999999999 0.22949999999999998 2.9459999999999997 0.34950000000000003 4.4190000000000005 0.07500000000000001 0.6000000000000001 0.279 1.6275 0.7304999999999999 2.559 0.1545 0.3225 0.3345 0.6285 0.5549999999999999 0.909 0.0225 0.026999999999999996 0.055499999999999994 0.0765 0.07200000000000001 0.07350000000000001 0.03 -0.0045000000000000005 1.113 -2.463 1.206 -2.6475 0.05399999999999999 -0.10500000000000001 0.045 -0.0825 0.0045000000000000005 -0.168zm5.7915 -1.3695h-1.308a0.189 0.189 0 0 1 -0.17400000000000002 -0.267l1.767 -3.9375a0.037500000000000006 0.037500000000000006 0 0 0 -0.0345 -0.052500000000000005l-1.977 -0.0045000000000000005a0.22199999999999998 0.22199999999999998 0 0 1 -0.2025 -0.315l1.314 -2.931a0.037500000000000006 0.037500000000000006 0 0 0 -0.0345 -0.052500000000000005h-2.34c-0.015 0 -0.03 0.009000000000000001 -0.036000000000000004 0.0225l-1.389 3.1020000000000003c-0.1275 0.2535 -0.471 0.9510000000000001 -0.5985 1.407a0.801 0.801 0 0 0 -0.03 0.2865 0.6900000000000001 0.6900000000000001 0 0 0 0.34500000000000003 0.567 1.4715 1.4715 0 0 0 0.6900000000000001 0.1785h0.885c0.0615 0 -1.032 2.223 -1.251 2.958a0.795 0.795 0 0 0 -0.0345 0.258 0.6975 0.6975 0 0 0 0.34500000000000003 0.597c0.22499999999999998 0.138 0.513 0.18 0.7124999999999999 0.18l2.4899999999999998 -0.0015c0.015 0 0.03 -0.009000000000000001 0.0345 -0.0225l0.8624999999999999 -1.92a0.037500000000000006 0.037500000000000006 0 0 0 -0.036000000000000004 -0.052500000000000005zm-10.395 -7.4055H4.65a0.048 0.048 0 0 0 -0.051000000000000004 0.0495c0 1.572 -0.015 4.1925 -0.015 10.2435 0 0.43199999999999994 -0.4035 0.393 -0.42000000000000004 0.393h-1.1099999999999999c-0.06 0.0015 -0.066 0.006 -0.06 0.07050000000000001 0.0015 0.055499999999999994 0.6975 1.596 0.8325 1.8944999999999999 0.015 0.03 0.045 0.0495 0.0765 0.0495 0.2355 0.0045000000000000005 1.1505 0.013499999999999998 1.407 -0.021 0.22949999999999998 -0.03 0.44999999999999996 -0.09 0.657 -0.198 0.44999999999999996 -0.23399999999999999 0.735 -0.6285 0.8925 -1.1475 0.078 -0.258 0.11249999999999999 -0.5295 0.11249999999999999 -0.7995000000000001 0.003 -3.495 0 -6.99 -0.0105 -10.4865a0.048 0.048 0 0 0 -0.048 -0.048zm17.676000000000002 10.344c0 -0.021 -0.015 -0.0315 -0.036000000000000004 -0.033h-2.1975000000000002c-0.07200000000000001 -0.0015 -0.07350000000000001 -0.003 -0.07500000000000001 -0.07350000000000001v-6.99c0 -0.10799999999999998 -0.0075 -0.10500000000000001 0.10500000000000001 -0.10500000000000001h1.2945c0.12 0 0.11249999999999999 0.006 0.11249999999999999 -0.11099999999999999V12.589500000000001c0 -0.123 0.009000000000000001 -0.11399999999999999 -0.12 -0.11399999999999999h-5.25c-0.096 0 -0.11249999999999999 -0.009000000000000001 -0.11249999999999999 0.10949999999999999v2.1675c0 0.1245 -0.009000000000000001 0.11549999999999999 0.12 0.11549999999999999h1.281c0.11249999999999999 0 0.10500000000000001 -0.006 0.10500000000000001 0.10500000000000001v6.936c0 0.14250000000000002 0.012 0.126 -0.1275 0.126 -0.5549999999999999 0 -1.665 -0.003 -1.956 0 -0.07200000000000001 0.0015 -0.09 0.045 -0.09 0.045l-1.0454999999999999 2.2784999999999997s-0.021 0.037500000000000006 -0.012 0.05399999999999999c0.009000000000000001 0.015 0.0195 0.012 0.08700000000000001 0.012 2.622 0.0045000000000000005 5.2425 0.003 7.8645000000000005 0.003 0.045 -0.0015 0.051000000000000004 -0.009000000000000001 0.052500000000000005 -0.0495v-2.3085zm6.265499999999999 -5.1450000000000005c0 0.0195 -0.0105 0.0345 -0.03 0.036000000000000004 -0.5189999999999999 0.009000000000000001 -1.0379999999999998 0.006 -1.5554999999999999 0.006 -0.021 -0.003 -0.033 -0.015 -0.033 -0.036000000000000004 -0.0075 -0.651 -0.0105 -1.3035 -0.015 -1.9545 0 -0.10799999999999998 -0.009000000000000001 -0.10649999999999998 0.10500000000000001 -0.10500000000000001l1.0995 -0.0045000000000000005c0.0615 0 0.1215 0.003 0.18 0.0225 0.1395 0.037500000000000006 0.24 0.1605 0.2475 0.306 0.009000000000000001 0.6465 0.003 1.7295 0.0015 1.7295zm4.005 0.366a2.9295 2.9295 0 0 0 -1.3245 -0.333h-0.27c-0.06 -0.0015 -0.06 -0.0045000000000000005 -0.063 -0.06V15.315000000000001c0 -0.198 -0.0105 -0.3945 -0.037500000000000006 -0.591a2.7344999999999997 2.7344999999999997 0 0 0 -0.22949999999999998 -0.795 2.2995 2.2995 0 0 0 -1.0155 -1.065 3.2504999999999997 3.2504999999999997 0 0 0 -1.5 -0.387c-0.22949999999999998 -0.0045000000000000005 -0.8504999999999999 0 -1.08 0 -0.10500000000000001 0 -0.10200000000000001 0.006 -0.10200000000000001 -0.0975V11.64c0 -0.0465 -0.015 -0.0615 -0.069 -0.058499999999999996H26.895s-0.024 0 -0.0345 0.0105c-0.009000000000000001 0.009000000000000001 -0.012 0.018000000000000002 -0.012 0.0345v0.8190000000000001c-0.012 0.05399999999999999 -0.0855 0.0225 -0.123 0.033h-1.4249999999999998c-0.033 0.003 -0.042 0.012 -0.045 0.048v2.2215000000000003c0 0.135 -0.006 0.123 0.123 0.123h1.3695c0.123 0 0.10799999999999998 0.192 0.10799999999999998 0.192v1.722s0.0045000000000000005 0.17550000000000002 -0.09 0.17550000000000002h-2.223c-0.10200000000000001 0 -0.09 0.123 -0.09 0.123v2.1675s-0.015 0.10200000000000001 0.096 0.10200000000000001h2.1855c0.123 0 0.11399999999999999 -0.009000000000000001 0.11399999999999999 0.1185v4.8375c0 0.132 -0.0105 0.1215 0.123 0.1215h2.145c0.135 0 0.123 0.0105 0.123 -0.12v-4.905c0 -0.043500000000000004 0.009000000000000001 -0.052500000000000005 0.0495 -0.052500000000000005l3.4844999999999997 -0.0045000000000000005c0.14700000000000002 0 0.2865 0.03 0.42000000000000004 0.0915a0.6900000000000001 0.6900000000000001 0 0 1 0.41100000000000003 0.6104999999999999c0.012 0.5925 0.0045000000000000005 1.185 0.0045000000000000005 1.7775 0 0.3885 -0.1605 0.5505 -0.495 0.5505h-1.827c-0.0345 0.003 -0.043500000000000004 0.012 -0.042 0.0495 0.276 0.6555 0.5609999999999999 1.3065 0.855 1.9545a0.0675 0.0675 0 0 0 0.06 0.039c0.255 0.0075 0.51 0.003 0.765 0.0045000000000000005 0.22499999999999998 -0.003 0.7755000000000001 0.006 0.9990000000000001 -0.015a3.045 3.045 0 0 0 0.612 -0.11249999999999999c0.885 -0.27 1.4625 -1.047 1.464 -1.9695v-2.9715000000000003c0 -0.192 -0.015 -0.381 -0.051000000000000004 -0.5700000000000001 0 0.11699999999999999 -0.043500000000000004 -0.9615 -1.0859999999999999 -1.4969999999999999z" fill="#d14bdd" stroke-width="1.5"></path>
</svg>